<?xml version="1.0" encoding="UTF-8" standalone="no"?>
<!DOCTYPE svg PUBLIC "-//W3C//DTD SVG 1.1//EN" "http://www.w3.org/Graphics/SVG/1.1/DTD/svg11.dtd">
<!--  y-coordinates: 
1   866 
2  1732
3  2598
4  3464
5  4330
6  5196
7  6062
8  6928
-->
<svg xmlns="http://www.w3.org/2000/svg" width="650px" height="750px" viewBox="-6500 -7500 13000 15000">
  <!-- white hexagon and six colored trigons-->
  <polygon style="stroke:none; fill:#FFFFFF;" points="-2000,-3464 2000,-3464 4000,0 2000,3464 -2000,3464 -4000,0"/> 
  <polygon style="stroke:none; fill:#FF0000;" points="0,-6928 -2000,-3464  2000,-3464"/> 
  <polygon style="stroke:none; fill:#FF0000;" points="0,6928   2000,3464  -2000,3464 "/> 
  <polygon style="stroke:none; fill:#00FF00;" points="-6000,-3464 -2000,-3464 -4000,0"/> 
  <polygon style="stroke:none; fill:#00FF00;" points=" 6000,3464   2000,3464   4000,0"/> 
  <polygon style="stroke:none; fill:#0000FF;" points=" 6000,-3464  2000,-3464  4000,0"/> 
  <polygon style="stroke:none; fill:#0000FF;" points="-6000,3464  -2000,3464  -4000,0"/> 
  

  <g style="stroke-width:40; stroke:#000000; fill: none; stroke-linejoin:round; stroke-linecap:butt;">
  <!-- Lines of a trigon. Create coordinates once, mirror it by swapping "y" and rotate it -->
    <polyline points="  500,-6062  -500,-6062 -1000,-5196  1000,-5196  1500,-4330                 -1500,-4330 -2000,-3464  2000,-3464     0,-6928  -500,-6062                  1000,-3464     0,-3464 -1000,-5196 -1500,-4330 -1000,-3464                   500,-6062  1000,-5196     0,-3464  1000,-3464  1500,-4330 "/> 

    <polyline points="  500,6062  -500,6062 -1000,5196  1000,5196  1500,4330                 -1500,4330 -2000,3464  2000,3464     0,6928  -500,6062                  1000,3464     0,3464 -1000,5196 -1500,4330 -1000,3464                   500,6062  1000,5196     0,3464  1000,3464  1500,4330 "/> 


    <polyline transform="rotate(60,0,0)" points="  500,-6062  -500,-6062 -1000,-5196  1000,-5196  1500,-4330                 -1500,-4330 -2000,-3464  2000,-3464     0,-6928  -500,-6062                  1000,-3464     0,-3464 -1000,-5196 -1500,-4330 -1000,-3464                   500,-6062  1000,-5196     0,-3464  1000,-3464  1500,-4330 "/> 

    <polyline transform="rotate(60,0,0)" points="  500,6062  -500,6062 -1000,5196  1000,5196  1500,4330                 -1500,4330 -2000,3464  2000,3464     0,6928  -500,6062                  1000,3464     0,3464 -1000,5196 -1500,4330 -1000,3464                   500,6062  1000,5196     0,3464  1000,3464  1500,4330 "/> 

    <polyline transform="rotate(120,0,0)" points="  500,-6062  -500,-6062 -1000,-5196  1000,-5196  1500,-4330                 -1500,-4330 -2000,-3464  2000,-3464     0,-6928  -500,-6062                  1000,-3464     0,-3464 -1000,-5196 -1500,-4330 -1000,-3464                   500,-6062  1000,-5196     0,-3464  1000,-3464  1500,-4330 "/> 

    <polyline transform="rotate(120,0,0)" points="  500,6062  -500,6062 -1000,5196  1000,5196  1500,4330                 -1500,4330 -2000,3464  2000,3464     0,6928  -500,6062                  1000,3464     0,3464 -1000,5196 -1500,4330 -1000,3464                   500,6062  1000,5196     0,3464  1000,3464  1500,4330 "/> 

    <!-- lines in the white hexagon -->
    <polyline points="-2000,-3464  2000,-3464  2500,-2598 -2500,-2598 -3000,-1732  3000,-1732  3500,-866                 -3500,-866  -4000,0      4000,0      3500,866   -3500,866   -3000,1732   3000,1732                  2500,2598  -2500,2598  -2000,3464  2000,3464    4000,0      3500,-866   1000,3464                     0,3464   3000,-1732  2500,-2598 -1000,3464  -2000,3464   2000,-3464  1000,-3464                 -2500,2598  -3000,1732      0,-3464 -1000,-3464 -3500,866   -4000,0    -2000,-3464                  1000,-3464  3500,866    3000,1732      0,-3464 -1000,-3464   2500,2598  2000,3464                   -2000,-3464 -2500,-2598  1000,3464      0,3464  -3000,-1732  -3500,-866 -1000,3464  "/> 
  </g>

  <!-- yellow circles -->
  <g style="stroke-width:40; stroke:#000000; fill:#FFFF00; ">
    <circle cx="-1500" cy="-2598" r="200"/>
    <circle cx="-500" cy="-2598" r="200"/>
    <circle cx="500" cy="-2598" r="200"/>
    <circle cx="1500" cy="-2598" r="200"/>
    <circle cx="-2000" cy="-1732" r="200"/>
    <circle cx="-1000" cy="-1732" r="200"/>
    <circle cx="0" cy="-1732" r="200"/>
    <circle cx="1000" cy="-1732" r="200"/>
    <circle cx="2000" cy="-1732" r="200"/>
    <circle cx="-2500" cy="-866" r="200"/>
    <circle cx="-1500" cy="-866" r="200"/>
    <circle cx="-500" cy="-866" r="200"/>
    <circle cx="500" cy="-866" r="200"/>
    <circle cx="1500" cy="-866" r="200"/>
    <circle cx="2500" cy="-866" r="200"/>
    <circle cx="-3000" cy="0" r="200"/>
    <circle cx="-2000" cy="0" r="200"/>
    <circle cx="-1000" cy="0" r="200"/>
    <circle cx="0" cy="0" r="200"/>
    <circle cx="1000" cy="0" r="200"/>
    <circle cx="2000" cy="0" r="200"/>
    <circle cx="3000" cy="0" r="200"/>
    <circle cx="-2500" cy="866" r="200"/>
    <circle cx="-1500" cy="866" r="200"/>
    <circle cx="-500" cy="866" r="200"/>
    <circle cx="500" cy="866" r="200"/>
    <circle cx="1500" cy="866" r="200"/>
    <circle cx="2500" cy="866" r="200"/>
    <circle cx="-2000" cy="1732" r="200"/>
    <circle cx="-1000" cy="1732" r="200"/>
    <circle cx="0" cy="1732" r="200"/>
    <circle cx="1000" cy="1732" r="200"/>
    <circle cx="2000" cy="1732" r="200"/>
    <circle cx="-1500" cy="2598" r="200"/>
    <circle cx="-500" cy="2598" r="200"/>
    <circle cx="500" cy="2598" r="200"/>
    <circle cx="1500" cy="2598" r="200"/>
  </g>
  
  <!-- black circles, create coordinates once and then rotate -->
  <g style="stroke-width:40; stroke:#000000; fill:#000000; ">
    <g>
      <circle cx="4000" cy="0" r="200"/>
      <circle cx="3500" cy="866" r="200"/>
      <circle cx="4500" cy="866" r="200"/>
      <circle cx="3000" cy="1732" r="200"/>
      <circle cx="4000" cy="1732" r="200"/>
      <circle cx="5000" cy="1732" r="200"/>
      <circle cx="2500" cy="2598" r="200"/>
      <circle cx="3500" cy="2598" r="200"/>
      <circle cx="4500" cy="2598" r="200"/>
      <circle cx="5500" cy="2598" r="200"/>
      <!--  2000 / 3464 not needed -->
      <circle cx="3000" cy="3464" r="200"/>
      <circle cx="4000" cy="3464" r="200"/>
      <circle cx="5000" cy="3464" r="200"/>
      <circle cx="6000" cy="3464" r="200"/> 
    </g>	
    <g transform="rotate(60,0,0)">
      <circle cx="4000" cy="0" r="200"/>
      <circle cx="3500" cy="866" r="200"/>
      <circle cx="4500" cy="866" r="200"/>
      <circle cx="3000" cy="1732" r="200"/>
      <circle cx="4000" cy="1732" r="200"/>
      <circle cx="5000" cy="1732" r="200"/>
      <circle cx="2500" cy="2598" r="200"/>
      <circle cx="3500" cy="2598" r="200"/>
      <circle cx="4500" cy="2598" r="200"/>
      <circle cx="5500" cy="2598" r="200"/>
      <circle cx="3000" cy="3464" r="200"/>
      <circle cx="4000" cy="3464" r="200"/>
      <circle cx="5000" cy="3464" r="200"/>
      <circle cx="6000" cy="3464" r="200"/> 
    </g>	
    <g transform="rotate(120,0,0)">
      <circle cx="4000" cy="0" r="200"/>
      <circle cx="3500" cy="866" r="200"/>
      <circle cx="4500" cy="866" r="200"/>
      <circle cx="3000" cy="1732" r="200"/>
      <circle cx="4000" cy="1732" r="200"/>
      <circle cx="5000" cy="1732" r="200"/>
      <circle cx="2500" cy="2598" r="200"/>
      <circle cx="3500" cy="2598" r="200"/>
      <circle cx="4500" cy="2598" r="200"/>
      <circle cx="5500" cy="2598" r="200"/>
      <circle cx="3000" cy="3464" r="200"/>
      <circle cx="4000" cy="3464" r="200"/>
      <circle cx="5000" cy="3464" r="200"/>
      <circle cx="6000" cy="3464" r="200"/> 
    </g>	
    <g transform="rotate(180,0,0)">
      <circle cx="4000" cy="0" r="200"/>
      <circle cx="3500" cy="866" r="200"/>
      <circle cx="4500" cy="866" r="200"/>
      <circle cx="3000" cy="1732" r="200"/>
      <circle cx="4000" cy="1732" r="200"/>
      <circle cx="5000" cy="1732" r="200"/>
      <circle cx="2500" cy="2598" r="200"/>
      <circle cx="3500" cy="2598" r="200"/>
      <circle cx="4500" cy="2598" r="200"/>
      <circle cx="5500" cy="2598" r="200"/>
      <circle cx="3000" cy="3464" r="200"/>
      <circle cx="4000" cy="3464" r="200"/>
      <circle cx="5000" cy="3464" r="200"/>
      <circle cx="6000" cy="3464" r="200"/> 
    </g>	
    <g transform="rotate(-60,0,0)">
      <circle cx="4000" cy="0" r="200"/>
      <circle cx="3500" cy="866" r="200"/>
      <circle cx="4500" cy="866" r="200"/>
      <circle cx="3000" cy="1732" r="200"/>
      <circle cx="4000" cy="1732" r="200"/>
      <circle cx="5000" cy="1732" r="200"/>
      <circle cx="2500" cy="2598" r="200"/>
      <circle cx="3500" cy="2598" r="200"/>
      <circle cx="4500" cy="2598" r="200"/>
      <circle cx="5500" cy="2598" r="200"/>
      <circle cx="3000" cy="3464" r="200"/>
      <circle cx="4000" cy="3464" r="200"/>
      <circle cx="5000" cy="3464" r="200"/>
      <circle cx="6000" cy="3464" r="200"/> 
    </g>	
    <g transform="rotate(-120,0,0)">
      <circle cx="4000" cy="0" r="200"/>
      <circle cx="3500" cy="866" r="200"/>
      <circle cx="4500" cy="866" r="200"/>
      <circle cx="3000" cy="1732" r="200"/>
      <circle cx="4000" cy="1732" r="200"/>
      <circle cx="5000" cy="1732" r="200"/>
      <circle cx="2500" cy="2598" r="200"/>
      <circle cx="3500" cy="2598" r="200"/>
      <circle cx="4500" cy="2598" r="200"/>
      <circle cx="5500" cy="2598" r="200"/>
      <circle cx="3000" cy="3464" r="200"/>
      <circle cx="4000" cy="3464" r="200"/>
      <circle cx="5000" cy="3464" r="200"/>
      <circle cx="6000" cy="3464" r="200"/> 
    </g>	
  </g>
</svg>